<?xml version="1.0" standalone="no"?>
<!DOCTYPE svg PUBLIC "-//W3C//DTD SVG 20010904//EN"
 "http://www.w3.org/TR/2001/REC-SVG-20010904/DTD/svg10.dtd">
<svg version="1.0" xmlns="http://www.w3.org/2000/svg"
 width="512.000000pt" height="512.000000pt" viewBox="0 0 512.000000 512.000000"
 preserveAspectRatio="xMidYMid meet">
<metadata>
Created by potrace 1.16, written by Peter Selinger 2001-2019
</metadata>
<g transform="translate(0.000000,512.000000) scale(0.100000,-0.100000)"
fill="#000000" stroke="none">
<path d="M2775 4004 c-26 -13 -41 -14 -108 -3 -81 12 -198 7 -272 -12 -22 -6
-103 -34 -180 -62 -129 -47 -147 -52 -230 -52 -78 0 -102 -5 -180 -35 -71 -28
-90 -39 -90 -55 0 -11 11 -25 25 -32 15 -7 138 -37 275 -68 335 -75 442 -99
620 -142 133 -31 161 -35 250 -31 l100 5 243 108 242 108 0 38 c0 71 -11 85
-87 103 -65 15 -458 87 -573 104 l-55 9 35 15 c19 9 31 17 25 17 -5 1 -23 -6
-40 -15z m-95 -19 c30 -3 61 -9 68 -14 7 -4 -68 -39 -195 -91 -115 -45 -220
-88 -235 -95 -14 -7 -39 -11 -55 -8 -24 4 -25 2 -10 -7 9 -6 79 -25 155 -41
192 -43 222 -48 222 -38 0 5 -10 9 -22 9 -37 0 -11 13 192 100 107 46 213 91
234 101 39 19 41 19 175 -6 213 -40 220 -42 227 -80 13 -70 13 -69 -191 -161
-250 -113 -249 -113 -330 -115 l-70 -2 55 -7 55 -7 -73 -1 c-56 -2 -119 9
-265 43 -106 24 -342 78 -526 120 -184 41 -339 79 -345 85 -16 16 11 34 109
70 84 31 93 32 143 22 52 -11 58 -10 185 37 198 73 236 84 307 91 64 7 80 6
190 -5z m253 -42 c53 -9 97 -19 97 -23 0 -3 -69 -34 -152 -69 -84 -35 -193
-81 -241 -101 l-88 -37 -107 24 c-59 13 -111 25 -116 26 -15 5 456 196 484
197 14 0 69 -7 123 -17z"/>
<path d="M1875 3633 c-44 -13 -87 -28 -95 -32 -13 -7 -15 -52 -18 -294 l-2
-286 -41 14 c-78 28 -133 14 -183 -45 -46 -55 -48 -79 -38 -548 9 -474 8 -467
69 -555 34 -49 86 -79 198 -112 50 -14 221 -70 380 -122 172 -57 306 -96 330
-96 56 0 100 26 129 76 24 41 25 47 24 242 -2 563 -4 681 -11 693 -5 7 -3 12
4 12 8 0 10 21 7 69 -4 74 -28 118 -88 161 -17 12 -145 53 -297 96 -148 42
-280 80 -295 86 l-28 10 0 277 c0 202 3 280 12 289 14 14 0 16 -20 3 -16 -10
-18 -50 -14 -375 2 -204 4 -237 17 -233 8 4 127 -27 265 -66 l251 -73 2 -86
c2 -102 14 -120 90 -143 82 -24 78 -11 77 -264 -1 -124 1 -234 5 -243 3 -9 5
-101 3 -205 -3 -177 -4 -190 -27 -226 -30 -49 -63 -70 -110 -70 -21 0 -141 34
-267 76 -126 42 -296 97 -377 122 -168 51 -191 62 -228 102 -57 61 -62 83 -70
298 -4 110 -8 315 -9 455 -2 283 1 304 59 353 36 30 90 35 151 13 32 -12 35
-16 32 -49 -4 -42 22 -103 50 -118 10 -5 80 -28 156 -50 75 -22 167 -49 204
-60 124 -36 178 -107 178 -234 0 -41 -4 -75 -9 -75 -5 0 -140 41 -301 91 -181
56 -296 87 -302 81 -16 -16 -6 -416 11 -435 7 -9 105 -46 216 -83 256 -82 260
-81 253 70 -2 44 -8 71 -15 74 -10 3 -13 -18 -13 -82 0 -65 -4 -88 -14 -92 -8
-3 -103 23 -212 59 l-199 63 -3 202 c-1 111 -1 202 1 202 2 0 43 -14 93 -30
190 -65 484 -151 501 -148 15 3 18 16 21 89 3 96 -9 137 -59 194 -44 50 -61
57 -290 124 -110 33 -209 67 -219 76 -16 14 -18 48 -25 349 -5 242 -4 339 4
354 7 13 28 26 54 32 54 14 147 49 127 48 -8 0 -51 -11 -95 -25z m656 -844
c11 -5 33 -28 49 -51 24 -32 30 -52 30 -90 0 -26 -4 -48 -8 -48 -5 0 -31 7
-58 16 -72 24 -84 42 -84 130 l0 74 26 -10 c14 -6 34 -15 45 -21z"/>
<path d="M3854 3409 c-70 -33 -89 -61 -107 -154 l-12 -60 -82 -44 c-92 -49
-110 -73 -119 -164 -4 -29 -15 -65 -27 -82 -20 -28 -22 -47 -29 -314 -7 -262
-6 -302 6 -290 3 3 10 132 16 287 9 256 12 286 30 310 11 15 24 56 29 96 12
82 24 97 114 142 l67 34 -5 -52 c-2 -29 -7 -186 -10 -348 -9 -468 -19 -625
-44 -691 -12 -30 -33 -67 -49 -81 -40 -38 -387 -258 -406 -258 -13 0 -16 12
-16 79 l0 79 88 57 c140 91 136 88 143 136 4 24 3 50 -1 58 -4 8 -10 -7 -14
-37 l-6 -50 -95 -61 c-136 -87 -135 -86 -135 -180 0 -44 3 -86 6 -95 10 -25
42 -19 98 18 28 18 112 73 186 121 152 98 184 125 210 175 32 64 39 133 50
495 6 198 15 447 20 553 11 237 16 252 108 300 60 32 64 33 87 18 44 -29 47
-69 31 -414 -9 -174 -23 -465 -31 -646 -9 -181 -20 -350 -26 -376 -13 -61 -41
-104 -86 -135 -117 -79 -439 -288 -452 -293 -12 -4 -13 5 -8 58 6 55 5 61 -8
50 -20 -17 -21 -128 -1 -136 7 -3 112 60 232 139 120 79 233 151 251 160 17 9
40 32 52 50 41 67 50 138 71 577 11 234 25 528 31 653 13 244 8 288 -32 328
-26 26 -53 23 -125 -12z"/>
<path d="M3906 3085 c-3 -49 -13 -295 -22 -545 -19 -556 -23 -576 -134 -656
-65 -46 -64 -52 1 -11 115 71 125 107 139 474 5 158 15 403 21 544 12 249 8
374 -5 194z"/>
<path d="M3262 2520 c-18 -11 -39 -35 -46 -53 -17 -39 -33 -497 -19 -497 11 0
23 184 23 339 0 125 12 165 55 194 57 36 44 52 -13 17z"/>
<path d="M1882 2433 c4 -57 10 -79 23 -89 9 -7 70 -29 134 -49 64 -20 161 -51
216 -68 l99 -32 9 -40 c5 -22 7 -99 5 -172 -3 -111 -6 -135 -22 -152 -11 -12
-27 -21 -37 -21 -10 0 -84 22 -165 50 -80 27 -150 47 -155 44 -5 -3 -9 0 -9 6
0 6 -5 8 -10 5 -6 -4 -68 11 -138 31 -141 43 -184 71 -217 144 -21 47 -37 54
-25 10 10 -35 45 -88 74 -112 25 -21 213 -84 276 -93 25 -3 117 -31 206 -61
133 -46 165 -53 187 -45 50 19 56 42 57 225 2 164 1 169 -22 192 -16 15 -82
41 -208 79 -102 31 -200 63 -217 70 -33 15 -33 15 -33 85 0 58 -3 70 -16 70
-14 0 -16 -10 -12 -77z"/>
<path d="M2390 2322 c0 -4 18 -25 39 -46 22 -22 49 -61 61 -87 11 -27 22 -49
24 -49 13 0 -21 83 -49 122 -33 44 -75 79 -75 60z"/>
<path d="M3634 1409 c-632 -410 -754 -492 -754 -505 0 -20 20 -8 220 130 91
63 252 170 358 238 106 67 234 152 285 187 50 35 112 73 137 85 57 26 55 25
44 36 -7 7 -106 -52 -290 -171z"/>
<path d="M1230 1400 c-17 -11 -31 -5 150 -64 162 -53 916 -320 1272 -449 111
-41 218 -58 218 -36 0 9 -120 56 -353 136 -193 67 -547 190 -785 273 -239 82
-446 150 -460 150 -15 0 -34 -4 -42 -10z"/>
</g>
</svg>